<svg xmlns="http://www.w3.org/2000/svg" xmlns:xlink="http://www.w3.org/1999/xlink" width="500" zoomAndPan="magnify" viewBox="0 0 375 374.999991" height="500" preserveAspectRatio="xMidYMid meet" version="1.0"><defs><g/><clipPath id="402bf38b5f"><path d="M 135 37.5 L 188 37.5 L 188 185 L 135 185 Z M 135 37.5 " clip-rule="nonzero"/></clipPath><clipPath id="22e61c9ad7"><path d="M 96.945312 66.015625 L 187.601562 66.015625 L 187.601562 213 L 96.945312 213 Z M 96.945312 66.015625 " clip-rule="nonzero"/></clipPath><clipPath id="3e9e23eb21"><path d="M 187 37.5 L 240 37.5 L 240 185 L 187 185 Z M 187 37.5 " clip-rule="nonzero"/></clipPath><clipPath id="c98be38639"><path d="M 187.175781 66.015625 L 278.042969 66.015625 L 278.042969 213 L 187.175781 213 Z M 187.175781 66.015625 " clip-rule="nonzero"/></clipPath><clipPath id="381b30d0dc"><path d="M 182.496094 91.128906 L 192.710938 91.128906 L 192.710938 213 L 182.496094 213 Z M 182.496094 91.128906 " clip-rule="nonzero"/></clipPath></defs><rect x="-37.5" width="450" fill="#ffffff" y="-37.499999" height="449.999989" fill-opacity="1"/><rect x="-37.5" width="450" fill="#ffffff" y="-37.499999" height="449.999989" fill-opacity="1"/><g clip-path="url(#402bf38b5f)"><path fill="#2b2b2b" d="M 135.800781 37.5625 C 135.800781 37.5625 180.78125 41.171875 187.492188 94.660156 L 187.492188 184.535156 C 187.492188 184.535156 167.882812 155.644531 135.800781 156.878906 L 135.800781 37.5625 " fill-opacity="1" fill-rule="nonzero"/></g><path fill="#ffffff" d="M 123.625 45.921875 C 123.625 45.921875 174.488281 45.921875 187.492188 94.660156 L 187.492188 192.894531 C 187.492188 192.894531 163.265625 164.003906 123.625 165.234375 L 123.625 45.921875 " fill-opacity="1" fill-rule="nonzero"/><path fill="#2b2b2b" d="M 112.332031 49.839844 C 112.332031 49.839844 171.292969 49.839844 187.492188 94.660156 L 187.492188 196.8125 C 187.492188 196.8125 158.976562 167.921875 112.332031 169.15625 L 112.332031 49.839844 " fill-opacity="1" fill-rule="nonzero"/><path fill="#ffffff" d="M 104.28125 61.390625 C 104.28125 61.390625 158.394531 58.398438 187.492188 94.660156 L 187.492188 209.503906 C 187.492188 209.503906 155.925781 180.613281 104.28125 181.84375 L 104.28125 61.390625 " fill-opacity="1" fill-rule="nonzero"/><g clip-path="url(#22e61c9ad7)"><path fill="#72001b" d="M 187.5 94.628906 L 187.492188 213.269531 C 187.492188 213.269531 153.140625 184.375 96.945312 185.609375 L 96.945312 66.292969 C 96.945312 66.292969 104.089844 66.371094 114.621094 67.535156 C 118.863281 68.007812 123.652344 68.652344 128.753906 69.539062 C 148.511719 72.980469 172.839844 80.058594 187.5 94.628906 " fill-opacity="1" fill-rule="nonzero"/></g><path fill="#2b2b2b" d="M 128.753906 69.539062 L 128.753906 120.707031 L 121.6875 113.207031 L 114.621094 116.496094 L 114.621094 67.535156 C 118.863281 68.007812 123.652344 68.652344 128.753906 69.539062 " fill-opacity="1" fill-rule="nonzero"/><g clip-path="url(#3e9e23eb21)"><path fill="#2b2b2b" d="M 239.1875 37.5 C 239.1875 37.5 194.207031 41.105469 187.496094 94.59375 L 187.496094 184.472656 C 187.496094 184.472656 207.105469 155.582031 239.1875 156.8125 L 239.1875 37.5 " fill-opacity="1" fill-rule="nonzero"/></g><path fill="#ffffff" d="M 251.359375 45.855469 C 251.359375 45.855469 200.5 45.855469 187.496094 94.59375 L 187.496094 192.828125 C 187.496094 192.828125 211.722656 163.9375 251.359375 165.171875 L 251.359375 45.855469 " fill-opacity="1" fill-rule="nonzero"/><path fill="#2b2b2b" d="M 262.660156 49.777344 C 262.660156 49.777344 203.695312 49.777344 187.496094 94.59375 L 187.496094 196.75 C 187.496094 196.75 216.007812 167.859375 262.660156 169.089844 L 262.660156 49.777344 " fill-opacity="1" fill-rule="nonzero"/><path fill="#ffffff" d="M 270.703125 61.328125 C 270.703125 61.328125 216.59375 58.335938 187.496094 94.59375 L 187.496094 209.4375 C 187.496094 209.4375 219.0625 180.546875 270.703125 181.78125 L 270.703125 61.328125 " fill-opacity="1" fill-rule="nonzero"/><g clip-path="url(#c98be38639)"><path fill="#2b2b2b" d="M 278.042969 66.234375 C 278.042969 66.234375 215.316406 66.90625 187.484375 94.5625 L 187.496094 213.203125 C 187.496094 213.203125 221.847656 184.3125 278.042969 185.546875 L 278.042969 66.234375 " fill-opacity="1" fill-rule="nonzero"/></g><g clip-path="url(#381b30d0dc)"><path fill="#ffffff" d="M 189.574219 213.269531 L 185.414062 213.269531 C 183.886719 213.269531 182.644531 212.03125 182.644531 210.5 L 182.644531 91.171875 L 192.34375 91.171875 L 192.34375 210.5 C 192.34375 212.03125 191.105469 213.269531 189.574219 213.269531 " fill-opacity="1" fill-rule="nonzero"/></g><path fill="#ffffff" d="M 192.328125 91.210938 L 193.039062 89.667969 L 190.964844 91.171875 Z M 192.328125 91.210938 " fill-opacity="1" fill-rule="nonzero"/><path fill="#ffffff" d="M 182.660156 91.210938 L 181.949219 89.667969 L 184.023438 91.171875 Z M 182.660156 91.210938 " fill-opacity="1" fill-rule="nonzero"/><path fill="#ffffff" d="M 260.292969 110.199219 L 260.292969 113.890625 C 238.421875 115.914062 217.742188 123.847656 214.722656 125.042969 L 214.722656 121.101562 C 220.558594 118.890625 239.945312 112.023438 260.292969 110.199219 " fill-opacity="1" fill-rule="nonzero"/><path fill="#ffffff" d="M 260.292969 120.703125 L 260.292969 124.394531 C 238.421875 126.421875 217.742188 134.355469 214.722656 135.550781 L 214.722656 131.613281 C 220.558594 129.398438 239.945312 122.53125 260.292969 120.703125 " fill-opacity="1" fill-rule="nonzero"/><path fill="#ffffff" d="M 260.292969 131.261719 L 260.292969 134.953125 C 238.421875 136.976562 217.742188 144.910156 214.722656 146.105469 L 214.722656 142.171875 C 220.558594 139.957031 239.945312 133.089844 260.292969 131.261719 " fill-opacity="1" fill-rule="nonzero"/><g fill="#2b2b2b" fill-opacity="1"><g transform="translate(19.935594, 282.527425)"><g><path d="M 4.5 -40.203125 L 27.484375 -40.203125 L 27.484375 -31.984375 L 13.265625 -31.984375 L 13.265625 -24.59375 L 23.640625 -24.59375 L 23.640625 -16.375 L 13.265625 -16.375 L 13.265625 -8.21875 L 27.78125 -8.21875 L 27.78125 0 L 4.5 0 Z M 4.5 -40.203125 "/></g></g></g><g fill="#2b2b2b" fill-opacity="1"><g transform="translate(63.197159, 282.527425)"><g><path d="M 4.5 -40.203125 L 20.40625 -40.203125 C 23.40625 -40.203125 26.171875 -39.691406 28.703125 -38.671875 C 31.242188 -37.648438 33.441406 -36.25 35.296875 -34.46875 C 37.160156 -32.6875 38.625 -30.566406 39.6875 -28.109375 C 40.75 -25.648438 41.28125 -22.976562 41.28125 -20.09375 C 41.28125 -17.21875 40.75 -14.554688 39.6875 -12.109375 C 38.625 -9.671875 37.160156 -7.550781 35.296875 -5.75 C 33.441406 -3.957031 31.242188 -2.550781 28.703125 -1.53125 C 26.171875 -0.507812 23.40625 0 20.40625 0 L 4.5 0 Z M 20.453125 -8.21875 C 22.140625 -8.21875 23.679688 -8.515625 25.078125 -9.109375 C 26.484375 -9.710938 27.703125 -10.546875 28.734375 -11.609375 C 29.773438 -12.671875 30.585938 -13.921875 31.171875 -15.359375 C 31.753906 -16.796875 32.046875 -18.375 32.046875 -20.09375 C 32.046875 -21.820312 31.753906 -23.40625 31.171875 -24.84375 C 30.585938 -26.28125 29.773438 -27.53125 28.734375 -28.59375 C 27.703125 -29.65625 26.484375 -30.484375 25.078125 -31.078125 C 23.679688 -31.679688 22.140625 -31.984375 20.453125 -31.984375 L 13.265625 -31.984375 L 13.265625 -8.21875 Z M 20.453125 -8.21875 "/></g></g></g><g fill="#2b2b2b" fill-opacity="1"><g transform="translate(119.058295, 282.527425)"><g><path d="M 20.578125 0.84375 C 18.179688 0.84375 15.984375 0.421875 13.984375 -0.421875 C 11.984375 -1.265625 10.257812 -2.4375 8.8125 -3.9375 C 7.375 -5.4375 6.242188 -7.234375 5.421875 -9.328125 C 4.609375 -11.429688 4.203125 -13.722656 4.203125 -16.203125 L 4.203125 -40.203125 L 12.953125 -40.203125 L 12.953125 -16.3125 C 12.953125 -13.632812 13.640625 -11.523438 15.015625 -9.984375 C 16.398438 -8.453125 18.234375 -7.6875 20.515625 -7.6875 C 22.796875 -7.6875 24.632812 -8.453125 26.03125 -9.984375 C 27.4375 -11.523438 28.140625 -13.632812 28.140625 -16.3125 L 28.140625 -40.203125 L 36.90625 -40.203125 L 36.90625 -16.203125 C 36.90625 -13.722656 36.492188 -11.429688 35.671875 -9.328125 C 34.847656 -7.234375 33.71875 -5.4375 32.28125 -3.9375 C 30.84375 -2.4375 29.125 -1.265625 27.125 -0.421875 C 25.125 0.421875 22.941406 0.84375 20.578125 0.84375 Z M 20.578125 0.84375 "/></g></g></g><g fill="#2b2b2b" fill-opacity="1"><g transform="translate(172.639499, 282.527425)"><g><path d="M 4.5 -40.203125 L 17.09375 -40.203125 C 19.175781 -40.203125 21.109375 -39.878906 22.890625 -39.234375 C 24.671875 -38.597656 26.203125 -37.695312 27.484375 -36.53125 C 28.765625 -35.375 29.765625 -33.992188 30.484375 -32.390625 C 31.203125 -30.796875 31.5625 -29.0625 31.5625 -27.1875 C 31.5625 -24.78125 30.976562 -22.609375 29.8125 -20.671875 C 28.65625 -18.734375 27.054688 -17.222656 25.015625 -16.140625 L 34.4375 0 L 24.234375 0 L 16.4375 -14.09375 L 13.265625 -14.09375 L 13.265625 0 L 4.5 0 Z M 16.6875 -21.84375 C 18.5625 -21.84375 20.046875 -22.3125 21.140625 -23.25 C 22.242188 -24.1875 22.796875 -25.476562 22.796875 -27.125 C 22.796875 -28.757812 22.234375 -29.976562 21.109375 -30.78125 C 19.992188 -31.582031 18.519531 -31.984375 16.6875 -31.984375 L 13.265625 -31.984375 L 13.265625 -21.84375 Z M 16.6875 -21.84375 "/></g></g></g><g fill="#2b2b2b" fill-opacity="1"><g transform="translate(220.460908, 282.527425)"><g><path d="M 4.5 -40.203125 L 27.484375 -40.203125 L 27.484375 -31.984375 L 13.265625 -31.984375 L 13.265625 -24.59375 L 23.640625 -24.59375 L 23.640625 -16.375 L 13.265625 -16.375 L 13.265625 -8.21875 L 27.78125 -8.21875 L 27.78125 0 L 4.5 0 Z M 4.5 -40.203125 "/></g></g></g><g fill="#2b2b2b" fill-opacity="1"><g transform="translate(263.722476, 282.527425)"><g><path d="M 12.78125 -23.9375 L 12.78125 0 L 4.5 0 L 4.5 -40.921875 L 9.0625 -40.921875 L 31.5 -16.265625 L 31.5 -40.203125 L 39.78125 -40.203125 L 39.78125 0.71875 L 35.21875 0.71875 Z M 12.78125 -23.9375 "/></g></g></g><g fill="#2b2b2b" fill-opacity="1"><g transform="translate(320.483587, 282.527425)"><g><path d="M 12.90625 -31.984375 L 1.203125 -31.984375 L 1.203125 -40.203125 L 33.359375 -40.203125 L 33.359375 -31.984375 L 21.65625 -31.984375 L 21.65625 0 L 12.90625 0 Z M 12.90625 -31.984375 "/></g></g></g><g fill="#72001b" fill-opacity="1"><g transform="translate(60.059095, 328.002897)"><g><path d="M 1.640625 0 L 1.640625 -15.578125 L 6.671875 -15.578125 C 7.890625 -15.578125 8.882812 -15.375 9.65625 -14.96875 C 10.425781 -14.570312 10.992188 -14.023438 11.359375 -13.328125 C 11.734375 -12.628906 11.921875 -11.859375 11.921875 -11.015625 C 11.921875 -10.035156 11.65625 -9.148438 11.125 -8.359375 C 10.601562 -7.578125 9.785156 -7.023438 8.671875 -6.703125 L 12.078125 0 L 9.875 0 L 6.71875 -6.4375 L 3.515625 -6.4375 L 3.515625 0 Z M 3.515625 -7.90625 L 6.546875 -7.90625 C 7.742188 -7.90625 8.613281 -8.191406 9.15625 -8.765625 C 9.707031 -9.347656 9.984375 -10.085938 9.984375 -10.984375 C 9.984375 -11.910156 9.710938 -12.644531 9.171875 -13.1875 C 8.628906 -13.726562 7.742188 -14 6.515625 -14 L 3.515625 -14 Z M 3.515625 -7.90625 "/></g></g></g><g fill="#72001b" fill-opacity="1"><g transform="translate(91.048032, 328.002897)"><g><path d="M 1.640625 0 L 1.640625 -15.578125 L 11.28125 -15.578125 L 11.28125 -14.046875 L 3.515625 -14.046875 L 3.515625 -8.609375 L 10.609375 -8.609375 L 10.609375 -7.09375 L 3.515625 -7.09375 L 3.515625 -1.53125 L 11.28125 -1.53125 L 11.28125 0 Z M 1.640625 0 "/></g></g></g><g fill="#72001b" fill-opacity="1"><g transform="translate(121.392177, 328.002897)"><g><path d="M 1.640625 0 L 1.640625 -15.578125 L 3.515625 -15.578125 L 11.8125 -3.09375 L 11.8125 -15.578125 L 13.6875 -15.578125 L 13.6875 0 L 11.8125 0 L 3.515625 -12.484375 L 3.515625 0 Z M 1.640625 0 "/></g></g></g><g fill="#72001b" fill-opacity="1"><g transform="translate(154.515541, 328.002897)"><g><path d="M 5.296875 0 L 5.296875 -14.046875 L 0.640625 -14.046875 L 0.640625 -15.578125 L 11.8125 -15.578125 L 11.8125 -14.046875 L 7.171875 -14.046875 L 7.171875 0 Z M 5.296875 0 "/></g></g></g><g fill="#72001b" fill-opacity="1"><g transform="translate(184.770755, 328.002897)"><g/></g></g><g fill="#72001b" fill-opacity="1"><g transform="translate(208.467014, 328.002897)"><g><path d="M 1.640625 0 L 1.640625 -15.578125 L 11.28125 -15.578125 L 11.28125 -14.046875 L 3.515625 -14.046875 L 3.515625 -8.609375 L 10.609375 -8.609375 L 10.609375 -7.09375 L 3.515625 -7.09375 L 3.515625 -1.53125 L 11.28125 -1.53125 L 11.28125 0 Z M 1.640625 0 "/></g></g></g><g fill="#72001b" fill-opacity="1"><g transform="translate(238.81116, 328.002897)"><g><path d="M 0.671875 0 L 6.40625 -15.578125 L 8.390625 -15.578125 L 14.109375 0 L 12.125 0 L 10.703125 -4 L 4.078125 -4 L 2.625 0 Z M 4.625 -5.515625 L 10.140625 -5.515625 L 7.390625 -13.21875 Z M 4.625 -5.515625 "/></g></g></g><g fill="#72001b" fill-opacity="1"><g transform="translate(271.378684, 328.002897)"><g><path d="M 6.609375 0.265625 C 5.460938 0.265625 4.46875 0.0546875 3.625 -0.359375 C 2.78125 -0.773438 2.128906 -1.351562 1.671875 -2.09375 C 1.210938 -2.832031 0.984375 -3.691406 0.984375 -4.671875 L 2.9375 -4.671875 C 2.9375 -4.066406 3.078125 -3.503906 3.359375 -2.984375 C 3.640625 -2.472656 4.050781 -2.066406 4.59375 -1.765625 C 5.132812 -1.460938 5.804688 -1.3125 6.609375 -1.3125 C 7.660156 -1.3125 8.472656 -1.5625 9.046875 -2.0625 C 9.628906 -2.570312 9.921875 -3.203125 9.921875 -3.953125 C 9.921875 -4.578125 9.785156 -5.078125 9.515625 -5.453125 C 9.253906 -5.835938 8.894531 -6.144531 8.4375 -6.375 C 7.988281 -6.613281 7.46875 -6.820312 6.875 -7 C 6.289062 -7.1875 5.679688 -7.390625 5.046875 -7.609375 C 3.847656 -8.023438 2.957031 -8.539062 2.375 -9.15625 C 1.800781 -9.769531 1.515625 -10.570312 1.515625 -11.5625 C 1.492188 -12.394531 1.679688 -13.132812 2.078125 -13.78125 C 2.484375 -14.425781 3.050781 -14.929688 3.78125 -15.296875 C 4.519531 -15.660156 5.394531 -15.84375 6.40625 -15.84375 C 7.40625 -15.84375 8.269531 -15.65625 9 -15.28125 C 9.726562 -14.914062 10.296875 -14.40625 10.703125 -13.75 C 11.117188 -13.09375 11.332031 -12.351562 11.34375 -11.53125 L 9.390625 -11.53125 C 9.390625 -11.957031 9.273438 -12.378906 9.046875 -12.796875 C 8.828125 -13.222656 8.488281 -13.566406 8.03125 -13.828125 C 7.582031 -14.097656 7.019531 -14.234375 6.34375 -14.234375 C 5.5 -14.253906 4.804688 -14.039062 4.265625 -13.59375 C 3.722656 -13.144531 3.453125 -12.53125 3.453125 -11.75 C 3.453125 -11.082031 3.640625 -10.566406 4.015625 -10.203125 C 4.390625 -9.847656 4.914062 -9.554688 5.59375 -9.328125 C 6.28125 -9.097656 7.070312 -8.835938 7.96875 -8.546875 C 8.707031 -8.273438 9.375 -7.960938 9.96875 -7.609375 C 10.5625 -7.253906 11.023438 -6.796875 11.359375 -6.234375 C 11.691406 -5.671875 11.859375 -4.953125 11.859375 -4.078125 C 11.859375 -3.328125 11.664062 -2.625 11.28125 -1.96875 C 10.894531 -1.3125 10.3125 -0.773438 9.53125 -0.359375 C 8.75 0.0546875 7.773438 0.265625 6.609375 0.265625 Z M 6.609375 0.265625 "/></g></g></g><g fill="#72001b" fill-opacity="1"><g transform="translate(302.034108, 328.002897)"><g><path d="M 5.515625 0 L 5.515625 -5.921875 L 0.4375 -15.578125 L 2.5625 -15.578125 L 6.453125 -7.703125 L 10.34375 -15.578125 L 12.4375 -15.578125 L 7.390625 -5.921875 L 7.390625 0 Z M 5.515625 0 "/></g></g></g></svg>