<svg version="1.1" viewBox="0.0 0.0 960.0 288.0" fill="none" stroke="none" stroke-linecap="square" stroke-miterlimit="10" xmlns:xlink="http://www.w3.org/1999/xlink" xmlns="http://www.w3.org/2000/svg"><clipPath id="p.0"><path d="m0 0l960.0 0l0 288.0l-960.0 0l0 -288.0z" clip-rule="nonzero"/></clipPath><g clip-path="url(#p.0)"><path fill="#000000" fill-opacity="0.0" d="m0 0l960.0 0l0 288.0l-960.0 0z" fill-rule="evenodd"/><path fill="#000000" fill-opacity="0.0" d="m-237.22835 350.14172l760.72437 0l0 205.38586l-760.72437 0z" fill-rule="evenodd"/><path fill="#ff385c" d="m-141.40022 525.54175l-71.25 0l0 -123.734406l71.25 0l0 21.5l-45.015625 0l0 27.171875l41.890625 0l0 21.484375l-41.890625 0l0 31.90625l45.015625 0l0 21.671906zm53.74579 1.6875q-15.828125 0 -25.78125 -12.390625q-9.9375 -12.4062805 -9.9375 -36.43753q0 -24.296875 10.0625 -36.765625q10.078125 -12.484375 26.328125 -12.484375q6.78125 0 11.9375 1.859375q5.171875 1.859375 8.9375 5.0q3.765625 3.125 6.390625 7.015625l0.84375 0q-0.515625 -2.703125 -1.234375 -7.984375q-0.71875 -5.296875 -0.71875 -10.890625l0 -30.296875l25.90625 0l0 131.68753l-19.8125 0l-4.984375 -12.265625l-1.109375 0q-2.453125 3.890625 -6.140625 7.0625q-3.671875 3.171875 -8.75 5.03125q-5.078125 1.859375 -11.9375 1.859375zm9.0625 -20.56253q10.578125 0 14.9375 -6.296875q4.359375 -6.3125 4.609375 -19.0l0 -2.796875q0 -13.796875 -4.234375 -21.109375q-4.234375 -7.328125 -15.734375 -7.328125q-8.5625 0 -13.390625 7.359375q-4.8125 7.359375 -4.8125 21.25q0 13.875 4.859375 20.90625q4.875 7.015625 13.765625 7.015625zm157.4967 -75.75l0 94.62503l-19.796875 0l-3.484375 -12.109375l-1.34375 0q-3.046875 4.828125 -7.625 7.875q-4.5625 3.046875 -10.0625 4.484375q-5.499998 1.4375 -11.437498 1.4375q-10.140626 0 -17.6875 -3.59375q-7.53125 -3.59375 -11.71875 -11.203125q-4.1875005 -7.6250305 -4.1875005 -19.81253l0 -61.703125l25.8125 0l0 55.265625q0 10.15625 3.640625 15.328125q3.640625 5.15625 11.593748 5.15625q7.875 0 12.359375 -3.59375q4.484375 -3.59375 6.296875 -10.578125q1.828125 -6.984375 1.828125 -17.0625l0 -44.515625l25.8125 0zm65.16583 -29.109375q16.84375 0 27.796875 4.0625q10.96875 4.0625 16.296875 12.28125q5.328125 8.203125 5.328125 20.71875q0 8.46875 -3.21875 14.828125q-3.203125 6.34375 -8.453125 10.75q-5.25 4.390625 -11.34375 7.1875l36.390625 53.90628l-29.109375 0l-29.546875 -47.484406l-13.953125 0l0 47.484406l-26.234375 0l0 -123.734406l36.046875 0zm-1.859375 21.5l-7.953125 0l0 33.421875l8.453125 0q13.046875 0 18.671875 -4.359375q5.625 -4.359375 5.625 -12.8125q0 -8.796875 -6.0625 -12.515625q-6.046875 -3.734375 -18.734375 -3.734375zm117.220535 5.84375q13.109375 0 22.59375 5.03125q9.484375 5.03125 14.640625 14.59375q5.15625 9.5625 5.15625 23.359375l0 12.53125l-61.01564 0q0.421875 10.921875 6.546875 17.140625q6.140625 6.21875 17.062515 6.21875q9.0625 0 16.59375 -1.859375q7.53125 -1.875 15.484375 -5.59375l0 19.96878q-7.015625 3.484375 -14.6875 5.078125q-7.65625 1.609375 -18.578125 1.609375q-14.218765 0 -25.17189 -5.234375q-10.953125 -5.25 -17.1875 -16.00003q-6.21875 -10.75 -6.21875 -27.078125q0 -16.59375 5.625 -27.640625q5.640625 -11.046875 15.703125 -16.578125q10.078125 -5.546875 23.45314 -5.546875zm0.15625 18.359375q-7.5312653 0 -12.48439 4.828125q-4.9375 4.8125 -5.703125 15.140625l36.218765 0q-0.078125 -5.75 -2.078125 -10.234375q-1.984375 -4.484375 -5.921875 -7.109375q-3.9375 -2.625 -10.03125 -2.625zm116.96826 -18.359375q15.15625 0 24.375 8.25q9.21875 8.25 9.21875 26.4375l0 61.703156l-25.8125 0l0 -55.265656q0 -10.15625 -3.6875 -15.3125q-3.671875 -5.171875 -11.546875 -5.171875q-11.84375 0 -16.15625 8.046875q-4.3125 8.03125 -4.3125 23.1875l0 44.515656l-25.8125 0l0 -94.62503l19.71875 0l3.46875 12.109375l1.4375 0q3.046875 -4.90625 7.5625 -7.953125q4.53125 -3.046875 10.078125 -4.484375q5.546875 -1.4375 11.46875 -1.4375zm100.04083 77.515625q4.234375 0 8.25 -0.84375q4.015625 -0.84375 8.0 -2.109375l0 19.203156q-4.15625 1.859375 -10.296875 3.078125q-6.125 1.234375 -13.40625 1.234375q-8.453125 0 -15.1875 -2.75q-6.734375 -2.75 -10.59375 -9.5625q-3.84375 -6.8125305 -3.84375 -19.00003l0 -45.609375l-12.34375 0l0 -10.921875l14.21875 -8.625l7.4375 -19.984375l16.5 0l0 20.140625l26.5 0l0 19.390625l-26.5 0l0 45.609375q0 5.421875 3.09375 8.09375q3.09375 2.65625 8.171875 2.65625z" fill-rule="nonzero"/><path fill="#000000" fill-opacity="0.0" d="m901.6588 45.82152l40.69287 0l0 36.157482l-40.69287 0z" fill-rule="evenodd"/><path fill="#eaed23" d="m911.31506 67.08527q0 -1.15625 0.171875 -2.28125q0.171875 -1.1250038 0.578125 -2.1093788q0.421875 -1.0 1.171875 -1.765625q0.765625 -0.78125 1.921875 -1.21875q1.171875 -0.4375 2.828125 -0.4375q0.390625 0 0.90625 0.03125q0.53125 0.03125 0.890625 0.09375l0 2.25q-0.375 -0.078125 -0.796875 -0.125q-0.40625 -0.046875 -0.8125 -0.046875q-1.65625 0 -2.5625 0.53125q-0.90625 0.515625 -1.28125 1.453125q-0.359375 0.9375038 -0.421875 2.1718788l0.109375 0q0.25 -0.4375 0.640625 -0.78125q0.390625 -0.359375 0.9375 -0.5625q0.5625 -0.203125 1.3125 -0.203125q1.171875 0 2.015625 0.5q0.859375 0.5 1.328125 1.4375q0.46875 0.9375 0.46875 2.28125q0 1.4375 -0.5625 2.484375q-0.546875 1.03125 -1.5625 1.59375q-1.015625 0.546875 -2.421875 0.546875q-1.015625 0 -1.90625 -0.34375q-0.875 -0.359375 -1.546875 -1.078125q-0.65625 -0.71875 -1.03125 -1.8125q-0.375 -1.109375 -0.375 -2.609375zm4.8125 3.59375q0.828125 0 1.34375 -0.5625q0.515625 -0.578125 0.515625 -1.78125q0 -0.96875 -0.453125 -1.53125q-0.4375 -0.5625 -1.359375 -0.5625q-0.609375 0 -1.078125 0.28125q-0.46875 0.28125 -0.734375 0.703125q-0.25 0.421875 -0.25 0.875q0 0.453125 0.125 0.921875q0.125 0.453125 0.375 0.828125q0.265625 0.375 0.640625 0.609375q0.375 0.21875 0.875 0.21875zm15.198425 -5.578125q0 1.15625 -0.171875 2.28125q-0.15625 1.125 -0.578125 2.125q-0.421875 1.0 -1.1875 1.78125q-0.75 0.765625 -1.921875 1.203125q-1.15625 0.4375 -2.8125 0.4375q-0.390625 0 -0.921875 -0.03125q-0.53125 -0.03125 -0.875 -0.109375l0 -2.25q0.359375 0.09375 0.765625 0.140625q0.421875 0.046875 0.84375 0.046875q1.65625 0 2.5625 -0.515625q0.90625 -0.53125 1.265625 -1.46875q0.375 -0.953125 0.4375 -2.171875l-0.109375 0q-0.265625 0.4375 -0.625 0.796875q-0.359375 0.34375 -0.921875 0.546875q-0.546875 0.203125 -1.40625 0.203125q-1.140625 0 -1.984375 -0.5q-0.84375 -0.5 -1.3125 -1.4375q-0.453125 -0.9375 -0.453125 -2.2812538q0 -1.453125 0.546875 -2.484375q0.5625 -1.03125 1.578125 -1.578125q1.03125 -0.5625 2.40625 -0.5625q1.03125 0 1.90625 0.359375q0.890625 0.34375 1.546875 1.0625q0.671875 0.71875 1.046875 1.828125q0.375 1.09375 0.375 2.5781288zm-4.8125 -3.5781288q-0.828125 0 -1.34375 0.578125q-0.515625 0.5625 -0.515625 1.765625q0 0.9531288 0.4375 1.5312538q0.453125 0.5625 1.359375 0.5625q0.625 0 1.09375 -0.28125q0.46875 -0.28125 0.71875 -0.703125q0.265625 -0.421875 0.265625 -0.875q0 -0.4531288 -0.125 -0.9062538q-0.125 -0.46875 -0.390625 -0.84375q-0.25 -0.375 -0.625 -0.59375q-0.375 -0.234375 -0.875 -0.234375z" fill-rule="nonzero"/><path fill="#000000" fill-opacity="0.0" d="m905.6903 65.86877l0 0c0 -8.897438 7.3044434 -16.110237 16.314941 -16.110237l0 0c4.3270264 0 8.476746 1.6973228 11.536438 4.7185783c3.0596313 3.0212555 4.7785034 7.1189575 4.7785034 11.391659l0 0c0 8.897438 -7.3044434 16.110237 -16.314941 16.110237l0 0c-9.010498 0 -16.314941 -7.212799 -16.314941 -16.110237z" fill-rule="evenodd"/><path stroke="#5cc743" stroke-width="3.0" stroke-linejoin="round" stroke-linecap="butt" d="m905.6903 65.86877l0 0c0 -8.897438 7.3044434 -16.110237 16.314941 -16.110237l0 0c4.3270264 0 8.476746 1.6973228 11.536438 4.7185783c3.0596313 3.0212555 4.7785034 7.1189575 4.7785034 11.391659l0 0c0 8.897438 -7.3044434 16.110237 -16.314941 16.110237l0 0c-9.010498 0 -16.314941 -7.212799 -16.314941 -16.110237z" fill-rule="evenodd"/><path fill="#ffffff" d="m130.44899 193.35764l63.370087 -54.67717l11.937012 8.503937l-63.370087 54.67717z" fill-rule="evenodd"/><defs><linearGradient id="p.1" gradientUnits="userSpaceOnUse" gradientTransform="matrix(10.245276702877929 0.0 0.0 10.245276702877929 0.0 0.0)" spreadMethod="pad" x1="5.724166461493894" y1="8.981450929611654" x2="5.724129434957289" y2="19.226727632422676"><stop offset="0.0" stop-color="#5cc743"/><stop offset="1.0" stop-color="#eaed23"/></linearGradient></defs><path fill="url(#p.1)" d="m58.645668 92.01796l141.92126 0l0 104.965195l-141.92126 0z" fill-rule="evenodd"/><defs><linearGradient id="p.2" gradientUnits="userSpaceOnUse" gradientTransform="matrix(7.985191115394009 0.0 0.0 7.985191115394009 0.0 0.0)" spreadMethod="pad" x1="7.344303779815651" y1="3.5383856242344813" x2="7.344274890832058" y2="11.523576739576232"><stop offset="0.0" stop-color="#5cc743"/><stop offset="1.0" stop-color="#eaed23"/></linearGradient></defs><path fill="url(#p.2)" d="m58.645668 92.01796l70.960625 -63.762764l70.96063 63.762764z" fill-rule="evenodd"/><path fill="#ffffff" d="m43.001846 130.17592l63.37008 -54.677162l11.937004 8.503937l-63.370075 54.677162z" fill-rule="evenodd"/><path fill="#ffffff" d="m86.10337 160.8967l63.37008 -54.677162l11.937012 8.503937l-63.37008 54.677162z" fill-rule="evenodd"/><path fill="#ffffff" d="m54.239605 120.48453l98.708664 70.39371l-11.212601 9.637787l-98.708664 -70.39371z" fill-rule="evenodd"/><defs><linearGradient id="p.3" gradientUnits="userSpaceOnUse" gradientTransform="matrix(11.635743534512955 0.0 0.0 11.635743534512955 0.0 0.0)" spreadMethod="pad" x1="18.94633752931686" y1="5.2857863986628475" x2="18.946295234986223" y2="16.921529933098935"><stop offset="0.0" stop-color="#5cc743"/><stop offset="1.0" stop-color="#eaed23"/></linearGradient></defs><path fill="url(#p.3)" d="m220.45473 69.58173l0 125.59472l71.130264 0l0 -17.438934l-50.512802 0l0 -39.430893l47.334274 0l0 -17.267136l-47.334274 0l0 -34.10472l50.512802 0l0 -17.353035z" fill-rule="evenodd"/><defs><linearGradient id="p.4" gradientUnits="userSpaceOnUse" gradientTransform="matrix(11.635743534512955 0.0 0.0 11.635743534512955 0.0 0.0)" spreadMethod="pad" x1="18.94633752931686" y1="5.2857863986628475" x2="18.946295234986223" y2="16.921529933098935"><stop offset="0.0" stop-color="#5cc743"/><stop offset="1.0" stop-color="#eaed23"/></linearGradient></defs><path fill="url(#p.4)" d="m354.03873 114.85425c9.106049 0 15.377197 2.8539963 18.813416 8.561981c3.4362488 5.6888885 5.1543884 13.859512 5.1543884 24.511871l0 2.663086c-0.11456299 9.965118 -1.9472046 17.43895 -5.497986 22.421494c-3.5508118 4.982559 -9.650116 7.473831 -18.298004 7.473831c-7.3879395 0 -12.990906 -2.758545 -16.80896 -8.2756195c-3.7989502 -5.5361786 -5.698456 -13.544525 -5.698456 -24.02507c0 -10.480545 1.8995056 -18.651169 5.698456 -24.511879c3.8180542 -5.8797913 9.36377 -8.8196945 16.637146 -8.8196945zm22.93692 -53.347687l0 34.190628c0 2.8635406 0.18136597 5.9752502 0.5440674 9.335129c0.38180542 3.3407974 0.71588135 5.8988876 1.0022583 7.6742783l-0.9449768 0c-1.8326721 -2.691719 -4.056671 -5.125725 -6.672058 -7.302017c-2.5962524 -2.1762848 -5.6984253 -3.9039536 -9.306488 -5.1829987c-3.6080627 -1.2981339 -7.817444 -1.9472046 -12.628204 -1.9472046c-11.396851 0 -20.579254 4.1807632 -27.54721 12.54229c-6.9488525 8.3615265 -10.423279 20.70337 -10.423279 37.025528c0 16.150345 3.4171448 28.368103 10.251465 36.653275c6.8533936 8.2660675 15.94989 12.399109 27.28952 12.399109c4.8680115 0 9.086945 -0.6586151 12.65683 -1.9758301c3.5889587 -1.3172302 6.6815796 -3.0735474 9.277863 -5.268921c2.6153564 -2.2144623 4.7821045 -4.6961975 6.5002136 -7.4451904l0.8590698 0l3.6080627 12.971817l15.806702 0l0 -133.66989z" fill-rule="evenodd"/><defs><linearGradient id="p.5" gradientUnits="userSpaceOnUse" gradientTransform="matrix(11.635743534512955 0.0 0.0 11.635743534512955 0.0 0.0)" spreadMethod="pad" x1="18.94633752931686" y1="5.2857863986628475" x2="18.946295234986223" y2="16.921529933098935"><stop offset="0.0" stop-color="#5cc743"/><stop offset="1.0" stop-color="#eaed23"/></linearGradient></defs><path fill="url(#p.5)" d="m425.3408 100.0784l0 62.110107c0 8.07518 1.3458557 14.661316 4.0375977 19.758408c2.6917114 5.097107 6.567047 8.867416 11.625946 11.310974c5.078003 2.4244537 11.196442 3.6366882 18.355286 3.6366882c4.1807556 0 8.161072 -0.5345154 11.9409485 -1.6035767c3.7798462 -1.0499573 7.216095 -2.6439972 10.308716 -4.7821045c3.0926208 -2.1572113 5.6411743 -4.8680115 7.64563 -8.132446l1.1167908 0l2.748993 12.800003l15.892639 0l0 -95.09805l-20.273834 0l0 47.33426c0 7.158844 -0.76361084 13.200912 -2.2908325 18.12619c-1.5081482 4.925293 -4.066223 8.647888 -7.674286 11.167801c-3.6080627 2.5199127 -8.476074 3.7798615 -14.604034 3.7798615c-6.3570557 0 -11.043701 -1.8326569 -14.059967 -5.497986c-2.9971619 -3.665329 -4.495758 -9.191956 -4.495758 -16.57988l0 -58.330246z" fill-rule="evenodd"/><defs><linearGradient id="p.6" gradientUnits="userSpaceOnUse" gradientTransform="matrix(11.635743534512955 0.0 0.0 11.635743534512955 0.0 0.0)" spreadMethod="pad" x1="18.94633752931686" y1="5.2857863986628475" x2="18.946295234986223" y2="16.921529933098935"><stop offset="0.0" stop-color="#5cc743"/><stop offset="1.0" stop-color="#eaed23"/></linearGradient></defs><path fill="url(#p.6)" d="m573.87244 86.762955c9.62146 0 16.732605 1.5176773 21.333374 4.5530243c4.619812 3.035347 6.9297485 8.189713 6.9297485 15.463097c0 6.929764 -2.166748 12.170036 -6.500244 15.720818c-4.314392 3.5507889 -11.253662 5.3261795 -20.817932 5.3261795l-14.260376 0l0 -41.063118zm-33.932922 -17.181221l0 125.59472l20.617493 0l0 -50.340973l20.187927 0l30.32483 50.340973l23.280579 0l-35.651062 -55.581238c4.238037 -1.7181244 8.218384 -4.008957 11.940979 -6.8724976c3.7225952 -2.8635406 6.729309 -6.471588 9.020142 -10.824165c2.2908325 -4.352577 3.4362183 -9.621483 3.4362183 -15.806725c0 -8.304253 -1.7371826 -15.148109 -5.211609 -20.531555c-3.4553223 -5.3834534 -8.724243 -9.392403 -15.806702 -12.026855c-7.0634155 -2.6344528 -16.007202 -3.951683 -26.83136 -3.951683z" fill-rule="evenodd"/><defs><linearGradient id="p.7" gradientUnits="userSpaceOnUse" gradientTransform="matrix(11.635743534512955 0.0 0.0 11.635743534512955 0.0 0.0)" spreadMethod="pad" x1="18.94633752931686" y1="5.2857863986628475" x2="18.946295234986223" y2="16.921529933098935"><stop offset="0.0" stop-color="#5cc743"/><stop offset="1.0" stop-color="#eaed23"/></linearGradient></defs><path fill="url(#p.7)" d="m688.12756 113.47975c4.753479 0 8.65741 1.0308762 11.711853 3.0926208c3.0735474 2.0617447 5.36438 4.9252853 6.8724976 8.590614c1.5272217 3.6653214 2.319458 7.8747177 2.376709 12.628197l-43.29663 0c0.68725586 -7.9606323 2.9876099 -14.002701 6.901123 -18.12619c3.9325562 -4.1234894 9.077393 -6.1852417 15.434448 -6.1852417zm0 -15.205376c-8.705139 0 -16.322144 1.9472046 -22.851013 5.841614c-6.5288696 3.8944092 -11.597351 9.564209 -15.205383 17.009407c-3.6080933 7.4451904 -5.4121094 16.493973 -5.4121094 27.146332c0 10.709625 1.9854126 19.6725 5.9561768 26.88861c3.9898682 7.21611 9.5164795 12.647278 16.579895 16.293518c7.0824585 3.6271515 15.29126 5.4407196 24.626404 5.4407196c6.8724976 0 12.771362 -0.51542664 17.696655 -1.5463104c4.925293 -1.0308685 9.764648 -2.663086 14.518127 -4.896637l0 -16.408066c-5.154358 2.2908173 -10.156006 4.0280304 -15.004944 5.211624c-4.829834 1.164505 -10.28009 1.7467651 -16.350769 1.7467651c-8.533386 0 -15.167236 -2.491272 -19.901611 -7.473831c-4.715271 -4.982559 -7.187439 -12.084122 -7.416565 -21.304718l63.48462 0l0 -10.824173c0 -8.934235 -1.6322021 -16.608505 -4.8966675 -23.022827c-3.2644043 -6.414322 -7.931946 -11.36824 -14.002686 -14.861755c-6.0706787 -3.493515 -13.344055 -5.2402725 -21.82013 -5.2402725z" fill-rule="evenodd"/><defs><linearGradient id="p.8" gradientUnits="userSpaceOnUse" gradientTransform="matrix(11.635743534512955 0.0 0.0 11.635743534512955 0.0 0.0)" spreadMethod="pad" x1="18.94633752931686" y1="5.2857863986628475" x2="18.946295234986223" y2="16.921529933098935"><stop offset="0.0" stop-color="#5cc743"/><stop offset="1.0" stop-color="#eaed23"/></linearGradient></defs><path fill="url(#p.8)" d="m801.18 98.274376c-4.123474 0 -8.094238 0.5440674 -11.9122925 1.6322098c-3.7989502 1.08815 -7.2352295 2.710823 -10.308777 4.868019c-3.0543823 2.1381073 -5.612488 4.8680115 -7.6742554 8.189713l-1.1167603 0l-2.8349 -12.885918l-15.720825 0l0 95.09805l20.187927 0l0 -47.248352c0 -10.7668915 1.7849121 -18.985245 5.3547974 -24.655052c3.5889893 -5.6698 9.993774 -8.5047 19.214355 -8.5047c6.3570557 0 11.053223 1.8517532 14.088562 5.5552597c3.0354004 3.6844177 4.5530396 9.220581 4.5530396 16.608505l0 58.24434l20.187927 0l0 -62.0242c0 -12.198669 -2.9971313 -21.056541 -8.991516 -26.573624c-5.9752197 -5.536171 -14.317627 -8.304253 -25.027283 -8.304253z" fill-rule="evenodd"/><defs><linearGradient id="p.9" gradientUnits="userSpaceOnUse" gradientTransform="matrix(11.635743534512955 0.0 0.0 11.635743534512955 0.0 0.0)" spreadMethod="pad" x1="18.94633752931686" y1="5.2857863986628475" x2="18.946295234986223" y2="16.921529933098935"><stop offset="0.0" stop-color="#5cc743"/><stop offset="1.0" stop-color="#eaed23"/></linearGradient></defs><path fill="url(#p.9)" d="m872.91156 78.9455l-6.614746 20.359741l-13.916809 7.130211l0 9.020142l12.971863 0l0 51.114136c0 7.7888184 1.2599487 13.888153 3.7798462 18.297989c2.5198975 4.409851 5.9275513 7.5215607 10.222839 9.335129c4.295288 1.7944794 9.134705 2.6917267 14.518127 2.6917267c3.8371582 0 7.531128 -0.34362793 11.081909 -1.0308685c3.5507812 -0.68725586 6.442932 -1.5176697 8.676514 -2.491272l0 -15.29129c-2.1190186 0.6872406 -4.467163 1.2790375 -7.0443115 1.7753906c-2.5772095 0.47724915 -5.1829834 0.71588135 -7.817444 0.71588135c-3.9517212 0 -7.130249 -1.1740417 -9.5355835 -3.5221405c-2.4053955 -2.348114 -3.6080933 -5.9275208 -3.6080933 -10.738266l0 -50.856415l27.232239 0l0 -15.377197l-27.232239 0l0 -21.132896z" fill-rule="evenodd"/><path fill="#ffffff" d="m130.44804 193.35703l63.37007 -54.67717l11.937012 8.503937l-63.37007 54.67717z" fill-rule="evenodd"/><path fill="#000000" fill-opacity="0.0" d="m611.6667 53.333332l214.99213 0l0 26.677166l-214.99213 0z" fill-rule="evenodd"/><path fill="#ffffff" d="m621.90106 80.253334l0 -9.671875l1.46875 0l0 1.375q1.0625 -1.59375 3.078125 -1.59375q0.875 0 1.609375 0.3125q0.734375 0.3125 1.09375 0.828125q0.375 0.5 0.515625 1.203125q0.09375 0.453125 0.09375 1.59375l0 5.953125l-1.640625 0l0 -5.890625q0 -1.0 -0.203125 -1.484375q-0.1875 -0.5 -0.671875 -0.796875q-0.484375 -0.296875 -1.140625 -0.296875q-1.046875 0 -1.8125 0.671875q-0.75 0.65625 -0.75 2.515625l0 5.28125l-1.640625 0zm10.375671 -11.46875l0 -1.890625l1.640625 0l0 1.890625l-1.640625 0zm0 11.46875l0 -9.671875l1.640625 0l0 9.671875l-1.640625 0zm3.8323364 0.796875l1.59375 0.234375q0.109375 0.75 0.5625 1.078125q0.609375 0.453125 1.671875 0.453125q1.140625 0 1.75 -0.453125q0.625 -0.453125 0.84375 -1.265625q0.125 -0.5 0.109375 -2.109375q-1.0625 1.265625 -2.671875 1.265625q-2.0 0 -3.09375 -1.4375q-1.09375 -1.4375 -1.09375 -3.453125q0 -1.390625 0.5 -2.5625q0.515625 -1.171875 1.453125 -1.796875q0.953125 -0.640625 2.25 -0.640625q1.703125 0 2.8125 1.375l0 -1.15625l1.515625 0l0 8.359375q0 2.265625 -0.46875 3.203125q-0.453125 0.9375 -1.453125 1.484375q-0.984375 0.546875 -2.453125 0.546875q-1.71875 0 -2.796875 -0.78125q-1.0625 -0.765625 -1.03125 -2.34375zm1.359375 -5.8125q0 1.90625 0.75 2.78125q0.765625 0.875 1.90625 0.875q1.125 0 1.890625 -0.859375q0.765625 -0.875 0.765625 -2.734375q0 -1.78125 -0.796875 -2.671875q-0.78125 -0.90625 -1.890625 -0.90625q-1.09375 0 -1.859375 0.890625q-0.765625 0.875 -0.765625 2.625zm9.016357 5.8125l1.59375 0.234375q0.109375 0.75 0.5625 1.078125q0.609375 0.453125 1.671875 0.453125q1.140625 0 1.75 -0.453125q0.625 -0.453125 0.84375 -1.265625q0.125 -0.5 0.109375 -2.109375q-1.0625 1.265625 -2.671875 1.265625q-2.0 0 -3.09375 -1.4375q-1.09375 -1.4375 -1.09375 -3.453125q0 -1.390625 0.5 -2.5625q0.515625 -1.171875 1.453125 -1.796875q0.953125 -0.640625 2.25 -0.640625q1.703125 0 2.8125 1.375l0 -1.15625l1.515625 0l0 8.359375q0 2.265625 -0.46875 3.203125q-0.453125 0.9375 -1.453125 1.484375q-0.984375 0.546875 -2.453125 0.546875q-1.71875 0 -2.796875 -0.78125q-1.0625 -0.765625 -1.03125 -2.34375zm1.359375 -5.8125q0 1.90625 0.75 2.78125q0.765625 0.875 1.90625 0.875q1.125 0 1.890625 -0.859375q0.765625 -0.875 0.765625 -2.734375q0 -1.78125 -0.796875 -2.671875q-0.78125 -0.90625 -1.890625 -0.90625q-1.09375 0 -1.859375 0.890625q-0.765625 0.875 -0.765625 2.625zm15.641357 3.828125q-0.921875 0.765625 -1.765625 1.09375q-0.828125 0.3125 -1.796875 0.3125q-1.59375 0 -2.453125 -0.78125q-0.859375 -0.78125 -0.859375 -1.984375q0 -0.71875 0.328125 -1.296875q0.328125 -0.59375 0.84375 -0.9375q0.53125 -0.359375 1.1875 -0.546875q0.46875 -0.125 1.453125 -0.25q1.984375 -0.234375 2.921875 -0.5625q0.015625 -0.34375 0.015625 -0.421875q0 -1.0 -0.46875 -1.421875q-0.625 -0.546875 -1.875 -0.546875q-1.15625 0 -1.703125 0.40625q-0.546875 0.40625 -0.8125 1.421875l-1.609375 -0.21875q0.21875 -1.015625 0.71875 -1.640625q0.5 -0.640625 1.453125 -0.984375q0.953125 -0.34375 2.1875 -0.34375q1.25 0 2.015625 0.296875q0.78125 0.28125 1.140625 0.734375q0.375 0.4375 0.515625 1.109375q0.078125 0.421875 0.078125 1.515625l0 2.1875q0 2.28125 0.109375 2.890625q0.109375 0.59375 0.40625 1.15625l-1.703125 0q-0.265625 -0.515625 -0.328125 -1.1875zm-0.140625 -3.671875q-0.890625 0.375 -2.671875 0.625q-1.015625 0.140625 -1.4375 0.328125q-0.421875 0.1875 -0.65625 0.53125q-0.21875 0.34375 -0.21875 0.78125q0 0.65625 0.5 1.09375q0.5 0.4375 1.453125 0.4375q0.9375 0 1.671875 -0.40625q0.75 -0.421875 1.09375 -1.140625q0.265625 -0.5625 0.265625 -1.640625l0 -0.609375z" fill-rule="nonzero"/></g></svg>