<svg version="1.1" viewBox="0.0 0.0 960.0 288.0" fill="none" stroke="none" stroke-linecap="square" stroke-miterlimit="10" xmlns:xlink="http://www.w3.org/1999/xlink" xmlns="http://www.w3.org/2000/svg"><clipPath id="p.0"><path d="m0 0l960.0 0l0 288.0l-960.0 0l0 -288.0z" clip-rule="nonzero"/></clipPath><g clip-path="url(#p.0)"><path fill="#000000" fill-opacity="0.0" d="m0 0l960.0 0l0 288.0l-960.0 0z" fill-rule="evenodd"/><path fill="#000000" fill-opacity="0.0" d="m0 0l960.0 0l0 288.0l-960.0 0z" fill-rule="evenodd"/><path fill="#00ffff" d="m9.0 9.0l936.6797 0l0 287.99997l-936.6797 0l0 -287.99997z" fill-rule="nonzero"/><path fill="#000000" fill-opacity="0.0" d="m9.0 -25.092194l936.6797 0l0 334.45312l-936.6797 0l0 -334.45312z" fill-rule="nonzero"/><path fill="#00ff00" d="m139.67188 81.66562q-1.640625 0 -3.640625 -0.59375q-19.796875 -5.625 -38.203125 -5.625q-9.609375 0 -20.984375 1.765625q-11.359375 1.75 -24.484375 5.390625q1.0625 7.609375 1.0625 12.1875q0 16.28125 -2.0 44.765625l51.328125 -4.921875q22.625 -2.34375 27.78125 -2.34375q5.15625 0 8.671875 3.28125q3.515625 3.28125 3.515625 8.78125q0 10.671875 -10.78125 11.953125l-27.890625 2.46875l-54.140625 4.921875q-0.46875 8.3125 -0.765625 15.765625q-0.296875 7.4375 -0.296875 13.875q0 25.90625 3.75 30.46875q2.8125 3.28125 18.40625 3.28125q7.265625 0 21.84375 -0.40625q14.59375 -0.40625 21.984375 -0.40625q2.34375 0 6.90625 -0.765625q4.578125 -0.765625 6.796875 -0.765625q12.421875 0 12.421875 12.1875q0 9.859375 -9.953125 11.84375q-11.015625 2.234375 -47.703125 2.234375q-36.328125 0 -46.640625 -9.609375q-11.25 -10.4375 -11.25 -48.0625q0 -7.5 0.34375 -16.40625q0.359375 -8.90625 0.953125 -19.21875q-1.296875 -2.6875 -1.296875 -5.734375q0 -3.984375 2.234375 -7.15625q2.34375 -33.859375 2.34375 -50.03125q0 -4.34375 -1.171875 -12.71875q-1.171875 -8.375 -1.171875 -12.71875q0 -13.9375 11.71875 -13.9375q4.921875 0 8.4375 3.390625q14.0625 -3.75 26.53125 -5.625q12.484375 -1.875 23.5 -1.875q28.484375 0 45.46875 6.796875q7.859375 3.171875 7.859375 11.25q0 4.6875 -3.046875 8.328125q-3.40625 3.984375 -8.4375 3.984375zm143.42969 54.25q-1.40625 17.234375 -1.40625 34.453125q0 39.03125 3.640625 58.953125q0.234375 1.640625 0.234375 2.6875q0 4.6875 -3.28125 7.734375q-3.28125 3.0625 -7.625 3.0625q-7.265625 0 -10.65625 -10.5625q-8.4375 6.21875 -17.53125 9.375q-9.078125 3.171875 -18.921875 3.171875q-24.25 0 -40.1875 -16.171875q-16.40625 -16.53125 -16.40625 -42.421875q0 -31.296875 16.578125 -50.15625q16.578125 -18.875 43.0625 -18.875q13.59375 0 20.984375 4.21875l11.015625 8.09375q1.640625 -49.34375 3.859375 -66.453125q1.53125 -10.421875 10.671875 -10.421875q10.65625 0 10.65625 11.359375q0 16.296875 -4.6875 71.953125zm-52.03125 3.046875q-19.6875 0 -29.53125 11.671875q-9.84375 11.65625 -9.84375 35.09375q0 15.109375 10.71875 26.015625q10.734375 10.890625 25.140625 10.890625q9.84375 0 16.640625 -3.625q3.984375 -2.109375 13.015625 -9.734375q1.75 -1.515625 3.390625 -3.625l-0.34375 -20.28125l0.109375 -13.59375l0.234375 -13.828125q-4.453125 -9.484375 -11.84375 -14.234375q-7.375 -4.75 -17.6875 -4.75zm180.71094 32.0q0 8.4375 0.109375 25.3125q0.125 16.875 0.125 25.3125q0 2.578125 0.40625 7.859375q0.40625 5.265625 0.40625 7.84375q0 5.046875 -3.40625 8.265625q-3.390625 3.21875 -8.3125 3.21875q-9.015625 0 -11.484375 -11.140625q-14.640625 7.625 -33.75 7.625q-15.34375 0 -25.421875 -6.796875q-11.140625 -7.5 -13.25 -21.921875q-4.5625 -31.046875 -4.5625 -55.3125q0 -16.046875 3.515625 -36.5625q1.640625 -10.1875 11.125 -10.1875q5.046875 0 8.4375 3.21875q3.40625 3.21875 3.40625 8.265625q0 5.390625 -1.703125 17.234375q-1.703125 11.828125 -1.703125 18.03125q0 19.578125 1.28125 33.53125q1.296875 13.9375 3.875 22.375q3.875 2.109375 7.625 3.21875q3.75 1.109375 7.375 1.109375q15.703125 0 33.171875 -5.03125l-0.125 -23.796875l-0.234375 -22.734375q0 -25.3125 2.234375 -43.9375q1.28125 -10.78125 11.359375 -10.78125q5.046875 0 8.4375 3.28125q3.40625 3.28125 3.171875 8.203125l-2.109375 44.296875zm144.83594 69.734375q-4.453125 0 -8.3125 -3.765625q-38.796875 -38.3125 -86.25 -51.5625l0.9375 22.96875l0.578125 23.09375q0 5.15625 -3.34375 8.609375q-3.328125 3.46875 -8.375 3.46875q-5.03125 0 -8.375 -3.46875q-3.34375 -3.453125 -3.34375 -8.609375q0 -9.265625 -0.875 -27.59375q-0.875 -18.34375 -0.875 -27.609375q0 -10.78125 2.34375 -32.109375q2.34375 -21.328125 2.34375 -31.984375q0 -5.984375 -1.125 -17.703125q-1.109375 -11.71875 -1.109375 -17.6875q0 -6.6875 3.75 -11.71875q4.453125 -6.21875 12.3125 -5.625l28.234375 2.21875q16.0625 2.0 27.078125 7.859375q47.453125 25.1875 47.453125 61.515625q0 17.8125 -16.171875 31.53125q-13.0 11.015625 -32.453125 16.75q36.4375 19.578125 54.484375 41.25q3.046875 3.75 3.046875 7.96875q0 4.921875 -3.578125 8.5625q-3.5625 3.640625 -8.375 3.640625zm-74.640625 -154.9375l-17.34375 -1.40625l1.171875 14.1875q0.8125 8.671875 0.8125 14.171875q0 9.375 -1.515625 23.328125l-2.46875 23.3125q1.640625 0 5.09375 0.125q3.46875 0.109375 5.21875 0.109375q29.890625 0 44.765625 -7.96875q6.5625 -3.625 12.1875 -9.484375q6.21875 -6.5625 6.21875 -11.140625q0 -16.28125 -18.515625 -30.34375q-17.0 -12.890625 -35.625 -14.890625zm164.52344 159.03125q-26.484375 0 -42.890625 -13.25q-17.921875 -14.640625 -17.921875 -41.015625q0 -30.46875 14.765625 -51.09375q16.046875 -22.5 42.890625 -22.5q19.453125 0 31.75 6.5625q15.125 8.09375 15.125 24.84375q0 11.71875 -13.25 21.328125q-5.859375 4.21875 -24.84375 13.125l-44.765625 21.21875q6.5625 9.71875 16.34375 14.640625q9.796875 4.921875 22.796875 4.921875q8.09375 0 18.984375 -3.046875q13.828125 -3.859375 17.8125 -10.125q3.984375 -6.28125 8.5625 -6.28125q4.09375 0 7.3125 3.109375q3.234375 3.109375 3.234375 7.203125q0 13.015625 -20.984375 22.390625q-17.921875 7.96875 -34.921875 7.96875zm-3.15625 -106.765625q-14.296875 0 -23.796875 11.078125q-9.484375 11.078125 -14.171875 33.34375l35.96875 -17.109375q21.21875 -10.3125 30.234375 -17.9375q-10.078125 -9.375 -28.234375 -9.375zm169.79688 109.703125q-10.078125 0 -11.359375 -11.03125l-3.28125 -25.65625q-1.640625 -13.71875 -1.640625 -25.671875q0 -3.28125 0.40625 -11.125q0.40625 -7.859375 0.40625 -11.140625q0 -25.3125 -9.375 -25.3125q-13.125 0 -25.078125 15.59375q-10.78125 14.171875 -16.875 35.859375q-0.234375 4.5625 -1.046875 11.484375q-0.703125 5.859375 -0.703125 11.359375q0 3.515625 0.703125 10.546875q0.703125 7.03125 0.703125 10.546875q0 5.28125 -3.234375 8.5625q-3.21875 3.28125 -8.25 3.28125q-5.15625 0 -8.328125 -3.28125q-3.15625 -3.28125 -3.15625 -8.5625q0 -3.515625 -0.765625 -10.546875q-0.765625 -7.03125 -0.765625 -10.546875q0 -12.0625 1.703125 -33.453125q1.703125 -21.390625 1.703125 -33.453125q0 -3.75 -0.421875 -11.125q-0.40625 -7.390625 -0.40625 -11.140625q0 -5.046875 3.34375 -8.265625q3.34375 -3.21875 8.265625 -3.21875q10.78125 0 11.828125 15.234375l0.359375 13.703125q19.6875 -26.25 40.421875 -26.25q18.75 0 26.140625 16.53125q5.03125 11.015625 5.5 32.578125l0 11.828125l-0.109375 10.90625q0 9.71875 2.515625 25.140625q2.515625 15.40625 2.515625 25.015625q0 5.15625 -3.34375 8.375q-3.328125 3.234375 -8.375 3.234375zm114.140625 -108.171875q-2.453125 0 -5.796875 -0.234375q-3.34375 -0.234375 -5.796875 -0.234375q-2.703125 0 -15.9375 1.75l2.21875 69.265625l0.125 5.15625l0.109375 5.96875q0.46875 25.671875 -12.296875 25.671875q-4.6875 0 -8.15625 -3.046875q-3.453125 -3.046875 -3.453125 -7.625q0 -4.453125 0.34375 -13.359375q0.359375 -8.90625 0.359375 -13.359375l-2.34375 -68.4375q-8.546875 -0.34375 -26.015625 -1.984375q-10.421875 -1.40625 -10.421875 -11.609375q0 -5.15625 3.15625 -8.546875q3.171875 -3.40625 8.09375 -3.40625l24.609375 2.0q0 -5.984375 -0.53125 -16.0q-0.53125 -10.015625 -0.53125 -14.46875q0 -4.921875 3.390625 -8.140625q3.40625 -3.234375 8.328125 -3.234375q10.546875 0 12.3125 17.234375q0.34375 4.328125 0.34375 10.421875l-0.234375 6.796875l-0.109375 7.265625q14.53125 -1.875 16.640625 -1.875q12.1875 0 15.9375 1.171875q7.140625 2.34375 7.140625 11.015625q0 5.15625 -3.21875 8.5q-3.21875 3.34375 -8.265625 3.34375z" fill-rule="nonzero"/><path fill="#010000" fill-opacity="0.0" d="m945.6797 -25.092194l0 0l0 334.45312l0 0l0 -334.45312z" fill-rule="nonzero"/></g></svg>