<svg version="1.1" viewBox="0.0 0.0 960.0 720.0" fill="none" stroke="none" stroke-linecap="square" stroke-miterlimit="10" xmlns:xlink="http://www.w3.org/1999/xlink" xmlns="http://www.w3.org/2000/svg"><clipPath id="p.0"><path d="m0 0l960.0 0l0 720.0l-960.0 0l0 -720.0z" clip-rule="nonzero"/></clipPath><g clip-path="url(#p.0)"><path fill="#000000" fill-opacity="0.0" d="m0 0l960.0 0l0 720.0l-960.0 0z" fill-rule="evenodd"/><path fill="#000000" fill-opacity="0.0" d="m382.17584 307.85565l95.77954 0l0 44.409454l-95.77954 0z" fill-rule="evenodd"/><path fill="#00ffff" d="m391.17584 316.85565l72.812225 0l0 22.399994l-72.812225 0l0 -22.399994z" fill-rule="nonzero"/><path fill="#000000" fill-opacity="0.0" d="m391.17584 314.2155l72.812225 0l0 25.998505l-72.812225 0l0 -25.998505z" fill-rule="nonzero"/><path fill="#00ff00" d="m401.3321 322.51q-0.125 0 -0.28125 -0.046875q-1.546875 -0.4375 -2.96875 -0.4375q-0.75 0 -1.640625 0.140625q-0.875 0.140625 -1.890625 0.421875q0.078125 0.59375 0.078125 0.953125q0 1.265625 -0.15625 3.46875l3.984375 -0.375q1.765625 -0.1875 2.171875 -0.1875q0.390625 0 0.65625 0.265625q0.28125 0.25 0.28125 0.671875q0 0.828125 -0.828125 0.9375l-2.171875 0.1875l-4.21875 0.375q-0.03125 0.65625 -0.0625 1.234375q-0.015625 0.578125 -0.015625 1.078125q0 2.015625 0.296875 2.359375q0.21875 0.265625 1.421875 0.265625q0.578125 0 1.703125 -0.03125q1.140625 -0.03125 1.703125 -0.03125q0.1875 0 0.546875 -0.0625q0.359375 -0.0625 0.53125 -0.0625q0.953125 0 0.953125 0.953125q0 0.765625 -0.765625 0.921875q-0.859375 0.171875 -3.703125 0.171875q-2.828125 0 -3.625 -0.75q-0.875 -0.8125 -0.875 -3.734375q0 -0.578125 0.015625 -1.265625q0.03125 -0.703125 0.078125 -1.5q-0.09375 -0.21875 -0.09375 -0.453125q0 -0.3125 0.171875 -0.546875q0.171875 -2.640625 0.171875 -3.890625q0 -0.34375 -0.09375 -0.984375q-0.078125 -0.65625 -0.078125 -1.0q0 -1.078125 0.90625 -1.078125q0.375 0 0.65625 0.265625q1.09375 -0.296875 2.0625 -0.4375q0.96875 -0.15625 1.828125 -0.15625q2.21875 0 3.53125 0.53125q0.609375 0.25 0.609375 0.875q0 0.359375 -0.234375 0.640625q-0.265625 0.3125 -0.65625 0.3125zm11.151062 4.21875q-0.109375 1.34375 -0.109375 2.6875q0 3.03125 0.28125 4.578125q0.015625 0.125 0.015625 0.203125q0 0.375 -0.25 0.609375q-0.25 0.234375 -0.59375 0.234375q-0.5625 0 -0.828125 -0.828125q-0.65625 0.484375 -1.359375 0.734375q-0.703125 0.25 -1.46875 0.25q-1.890625 0 -3.125 -1.265625q-1.28125 -1.28125 -1.28125 -3.296875q0 -2.421875 1.28125 -3.890625q1.296875 -1.46875 3.359375 -1.46875q1.046875 0 1.625 0.328125l0.859375 0.625q0.125 -3.828125 0.296875 -5.15625q0.125 -0.8125 0.828125 -0.8125q0.828125 0 0.828125 0.875q0 1.265625 -0.359375 5.59375zm-4.046875 0.234375q-1.53125 0 -2.296875 0.90625q-0.765625 0.90625 -0.765625 2.734375q0 1.171875 0.828125 2.03125q0.84375 0.84375 1.96875 0.84375q0.765625 0 1.28125 -0.28125q0.3125 -0.171875 1.015625 -0.765625q0.140625 -0.109375 0.265625 -0.28125l-0.03125 -1.578125l0.015625 -1.046875l0.015625 -1.078125q-0.34375 -0.734375 -0.921875 -1.109375q-0.578125 -0.375 -1.375 -0.375zm14.05246 2.5q0 0.640625 0 1.953125q0.015625 1.3125 0.015625 1.96875q0 0.203125 0.03125 0.625q0.03125 0.40625 0.03125 0.609375q0 0.390625 -0.265625 0.640625q-0.265625 0.25 -0.640625 0.25q-0.703125 0 -0.890625 -0.875q-1.140625 0.59375 -2.625 0.59375q-1.203125 0 -1.984375 -0.53125q-0.859375 -0.578125 -1.03125 -1.703125q-0.34375 -2.40625 -0.34375 -4.296875q0 -1.25 0.265625 -2.84375q0.125 -0.78125 0.859375 -0.78125q0.390625 0 0.65625 0.25q0.265625 0.25 0.265625 0.640625q0 0.40625 -0.140625 1.328125q-0.125 0.921875 -0.125 1.40625q0 1.515625 0.09375 2.609375q0.109375 1.078125 0.3125 1.734375q0.296875 0.171875 0.59375 0.265625q0.296875 0.078125 0.578125 0.078125q1.21875 0 2.578125 -0.390625l-0.015625 -1.859375l-0.015625 -1.765625q0 -1.96875 0.171875 -3.40625q0.09375 -0.84375 0.890625 -0.84375q0.390625 0 0.640625 0.265625q0.265625 0.25 0.25 0.625l-0.15625 3.453125zm11.248505 5.40625q-0.34375 0 -0.640625 -0.28125q-3.015625 -2.984375 -6.703125 -4.015625l0.078125 1.796875l0.046875 1.78125q0 0.40625 -0.265625 0.671875q-0.265625 0.265625 -0.65625 0.265625q-0.390625 0 -0.65625 -0.265625q-0.25 -0.265625 -0.25 -0.671875q0 -0.71875 -0.078125 -2.140625q-0.0625 -1.421875 -0.0625 -2.140625q0 -0.84375 0.1875 -2.5q0.1875 -1.65625 0.1875 -2.484375q0 -0.46875 -0.09375 -1.375q-0.09375 -0.90625 -0.09375 -1.375q0 -0.515625 0.296875 -0.921875q0.34375 -0.46875 0.953125 -0.4375l2.203125 0.1875q1.25 0.140625 2.109375 0.609375q3.6875 1.953125 3.6875 4.78125q0 1.375 -1.265625 2.453125q-1.015625 0.84375 -2.515625 1.296875q2.828125 1.515625 4.234375 3.203125q0.234375 0.296875 0.234375 0.625q0 0.375 -0.28125 0.65625q-0.28125 0.28125 -0.65625 0.28125zm-5.796875 -12.03125l-1.34375 -0.109375l0.09375 1.09375q0.0625 0.671875 0.0625 1.109375q0 0.71875 -0.125 1.8125l-0.1875 1.8125q0.125 0 0.390625 0.015625q0.265625 0 0.40625 0q2.328125 0 3.484375 -0.625q0.515625 -0.28125 0.953125 -0.734375q0.46875 -0.515625 0.46875 -0.859375q0 -1.265625 -1.4375 -2.359375q-1.3125 -1.0 -2.765625 -1.15625zm12.786407 12.359375q-2.046875 0 -3.328125 -1.03125q-1.390625 -1.140625 -1.390625 -3.1875q0 -2.375 1.140625 -3.96875q1.25 -1.75 3.34375 -1.75q1.5 0 2.46875 0.5q1.171875 0.640625 1.171875 1.9375q0 0.90625 -1.03125 1.65625q-0.453125 0.328125 -1.9375 1.015625l-3.46875 1.65625q0.5 0.75 1.265625 1.140625q0.765625 0.375 1.765625 0.375q0.640625 0 1.484375 -0.234375q1.078125 -0.296875 1.375 -0.78125q0.3125 -0.484375 0.671875 -0.484375q0.3125 0 0.5625 0.234375q0.25 0.234375 0.25 0.5625q0 1.015625 -1.625 1.734375q-1.390625 0.625 -2.71875 0.625zm-0.234375 -8.296875q-1.125 0 -1.859375 0.859375q-0.734375 0.859375 -1.09375 2.59375l2.796875 -1.328125q1.640625 -0.8125 2.34375 -1.40625q-0.78125 -0.71875 -2.1875 -0.71875zm13.189606 8.515625q-0.78125 0 -0.875 -0.84375l-0.265625 -2.0q-0.125 -1.0625 -0.125 -2.0q0 -0.25 0.03125 -0.859375q0.03125 -0.609375 0.03125 -0.875q0 -1.953125 -0.71875 -1.953125q-1.03125 0 -1.953125 1.203125q-0.84375 1.109375 -1.3125 2.78125q-0.015625 0.359375 -0.078125 0.90625q-0.0625 0.453125 -0.0625 0.875q0 0.28125 0.046875 0.828125q0.0625 0.546875 0.0625 0.8125q0 0.40625 -0.25 0.65625q-0.25 0.265625 -0.640625 0.265625q-0.40625 0 -0.65625 -0.265625q-0.234375 -0.25 -0.234375 -0.65625q0 -0.265625 -0.0625 -0.8125q-0.0625 -0.546875 -0.0625 -0.828125q0 -0.9375 0.125 -2.59375q0.140625 -1.671875 0.140625 -2.609375q0 -0.28125 -0.03125 -0.859375q-0.03125 -0.578125 -0.03125 -0.875q0 -0.390625 0.25 -0.640625q0.265625 -0.25 0.65625 -0.25q0.828125 0 0.921875 1.1875l0.015625 1.0625q1.53125 -2.03125 3.15625 -2.03125q1.453125 0 2.03125 1.28125q0.390625 0.859375 0.421875 2.53125l0 0.921875l-0.015625 0.84375q0 0.765625 0.203125 1.96875q0.203125 1.1875 0.203125 1.9375q0 0.390625 -0.265625 0.640625q-0.265625 0.25 -0.65625 0.25zm8.874756 -8.40625q-0.1875 0 -0.453125 -0.015625q-0.25 -0.015625 -0.453125 -0.015625q-0.203125 0 -1.234375 0.140625l0.171875 5.375l0.015625 0.40625l0 0.46875q0.046875 1.984375 -0.953125 1.984375q-0.359375 0 -0.640625 -0.234375q-0.265625 -0.234375 -0.265625 -0.59375q0 -0.34375 0.03125 -1.03125q0.03125 -0.703125 0.03125 -1.046875l-0.1875 -5.3125q-0.65625 -0.03125 -2.015625 -0.15625q-0.8125 -0.109375 -0.8125 -0.90625q0 -0.390625 0.234375 -0.65625q0.25 -0.265625 0.640625 -0.265625l1.90625 0.15625q0 -0.46875 -0.046875 -1.25q-0.03125 -0.78125 -0.03125 -1.125q0 -0.375 0.265625 -0.625q0.265625 -0.25 0.640625 -0.25q0.828125 0 0.96875 1.328125q0.015625 0.34375 0.015625 0.8125l-0.015625 0.53125l0 0.5625q1.125 -0.140625 1.28125 -0.140625q0.953125 0 1.25 0.09375q0.546875 0.171875 0.546875 0.84375q0 0.40625 -0.25 0.671875q-0.25 0.25 -0.640625 0.25z" fill-rule="nonzero"/><path fill="#010000" fill-opacity="0.0" d="m463.98807 314.2155l0 0l0 25.998505l0 0l0 -25.998505z" fill-rule="nonzero"/></g></svg>